
<svg width="120" height="120" viewBox="0 0 120 120" fill="none" xmlns="http://www.w3.org/2000/svg">
  <!-- Tree 1 -->
  <path d="M40 90V50C40 47.2386 42.2386 45 45 45H55C57.7614 45 60 47.2386 60 50V90" stroke="#2D5F34" stroke-width="6" stroke-linecap="round"/>
  <path d="M30 55C35 45 45 40 50 40C55 40 65 45 70 55" stroke="#2D5F34" stroke-width="5" stroke-linecap="round"/>
  <path d="M25 65C35 50 45 45 50 45C55 45 65 50 75 65" stroke="#2D5F34" stroke-width="5" stroke-linecap="round"/>
  <path d="M20 75C35 55 45 50 50 50C55 50 65 55 80 75" stroke="#2D5F34" stroke-width="5" stroke-linecap="round"/>
  
  <!-- Small decorative leaves -->
  <circle cx="35" cy="60" r="3" fill="#A5C896"/>
  <circle cx="65" cy="60" r="3" fill="#A5C896"/>
  <circle cx="50" cy="35" r="3" fill="#7EA172"/>
  <circle cx="40" cy="50" r="2" fill="#7EA172"/>
  <circle cx="60" cy="50" r="2" fill="#7EA172"/>
  <circle cx="30" cy="70" r="2" fill="#A5C896"/>
  <circle cx="70" cy="70" r="2" fill="#A5C896"/>
  
  <!-- Sunlight -->
  <circle cx="80" cy="30" r="8" fill="#F3B941"/>
  <path d="M80 15V20" stroke="#F3B941" stroke-width="2" stroke-linecap="round"/>
  <path d="M80 40V45" stroke="#F3B941" stroke-width="2" stroke-linecap="round"/>
  <path d="M65 30H70" stroke="#F3B941" stroke-width="2" stroke-linecap="round"/>
  <path d="M90 30H95" stroke="#F3B941" stroke-width="2" stroke-linecap="round"/>
  <path d="M69 19L73 23" stroke="#F3B941" stroke-width="2" stroke-linecap="round"/>
  <path d="M87 37L91 41" stroke="#F3B941" stroke-width="2" stroke-linecap="round"/>
  <path d="M69 41L73 37" stroke="#F3B941" stroke-width="2" stroke-linecap="round"/>
  <path d="M87 23L91 19" stroke="#F3B941" stroke-width="2" stroke-linecap="round"/>
</svg>
